<mxfile host="app.diagrams.net" modified="2023-07-25T05:49:59.757Z" agent="Mozilla/5.0 (Windows NT 10.0; Win64; x64) AppleWebKit/537.36 (KHTML, like Gecko) Chrome/115.0.0.0 Safari/537.36" version="21.6.5" etag="Xvb23mnB7Ls86z5YBIyG" type="github">
  <diagram name="第 1 页" id="WAV3GqaGXuRam3C0aGOU">
    <mxGraphModel>
      <root>
        <mxCell id="0" />
        <mxCell id="1" parent="0" />
      </root>
    </mxGraphModel>
  </diagram>
</mxfile>
